<?xml version="1.0" encoding="UTF-8" standalone="no"?>
<!-- Created with Inkscape (http://www.inkscape.org/) -->

<svg
   width="69.264992mm"
   height="48.387817mm"
   viewBox="0 0 69.264992 48.387817"
   version="1.1"
   id="svg5"
   xmlns:inkscape="http://www.inkscape.org/namespaces/inkscape"
   xmlns:sodipodi="http://sodipodi.sourceforge.net/DTD/sodipodi-0.dtd"
   xmlns="http://www.w3.org/2000/svg"
   xmlns:svg="http://www.w3.org/2000/svg">
  <sodipodi:namedview
     id="namedview7"
     pagecolor="#ffffff"
     bordercolor="#000000"
     borderopacity="0.25"
     inkscape:showpageshadow="2"
     inkscape:pageopacity="0.0"
     inkscape:pagecheckerboard="0"
     inkscape:deskcolor="#d1d1d1"
     inkscape:document-units="mm"
     showgrid="false" />
  <defs
     id="defs2" />
  <g
     inkscape:label="Layer 1"
     inkscape:groupmode="layer"
     id="layer1"
     transform="translate(-66.708337,-110.95416)">
    <path
       style="fill:#7309b9;fill-opacity:1;stroke:#7309b9;stroke-width:0.0556173;stroke-opacity:1"
       d="m 67.807274,153.30488 c -0.898409,-0.22948 -1.229027,-0.81989 -1.001837,-1.78906 0.09933,-0.42374 0.621366,-1.50546 1.009938,-2.09272 0.501743,-0.75831 1.529763,-1.63223 2.490542,-2.11723 0.533577,-0.26935 1.261181,-0.53363 2.040088,-0.741 0.397169,-0.10574 0.795983,-0.23045 0.886259,-0.27714 0.260429,-0.13467 0.318788,-0.45736 0.387249,-2.14124 0.03296,-0.81062 0.109154,-2.08704 0.169326,-2.83648 0.142703,-1.77731 0.260305,-3.4493 0.332515,-4.72747 0.07936,-1.40463 0.268769,-4.12099 0.339339,-4.86651 0.179593,-1.89723 0.173693,-2.4427 -0.03302,-3.05149 -0.353267,-1.04042 -2.150526,-4.47678 -3.189087,-6.09754 -0.12741,-0.19883 -0.300344,-0.47261 -0.384299,-0.60839 -0.08396,-0.13579 -0.709885,-1.08332 -1.39096,-2.10564 -0.821594,-1.23324 -1.378714,-2.00988 -1.655529,-2.30784 -0.539155,-0.58035 -0.714732,-0.93264 -0.740304,-1.48539 -0.01469,-0.31766 0.009,-0.50129 0.09948,-0.76977 0.248418,-0.73742 0.96655,-1.67604 1.96255,-2.56512 1.067453,-0.95286 1.586687,-1.21989 2.461995,-1.26618 0.970145,-0.0513 1.677853,0.22674 2.725246,1.07069 0.704979,0.56804 0.836342,0.6486 1.545224,0.94757 0.53425,0.22532 1.809354,0.92561 4.127733,2.26699 2.768079,1.60157 8.623186,4.93568 10.73413,6.11241 1.888761,1.05288 3.381031,1.85421 6.090091,3.27032 4.397007,2.29845 6.356817,3.57386 7.985807,5.19702 1.5184,1.51296 2.10781,2.57545 2.17622,3.92295 0.0833,1.64161 -0.89043,3.88382 -2.49996,5.75638 -0.68668,0.7989 -1.8674,1.94457 -2.63155,2.55344 -1.76242,1.40427 -4.248997,2.78763 -7.504887,4.1752 -3.339266,1.42311 -8.977185,3.16565 -14.210807,4.3922 -0.749443,0.17563 -1.925746,0.45253 -2.614012,0.61532 -1.776433,0.42016 -4.524081,0.93406 -6.530625,1.22144 -0.548191,0.0785 -1.198912,0.19524 -1.446049,0.2594 -0.551937,0.14329 -1.349071,0.18238 -1.730806,0.0849 z m 15.307463,-9.01534 c 4.640884,-1.07403 10.223206,-2.73888 13.337686,-3.97778 1.32905,-0.52868 2.66956,-1.25065 3.603357,-1.9407 l 0.32194,-0.2379 -0.13994,-0.16631 c -1.651377,-1.96254 -3.272237,-3.13401 -9.631522,-6.96112 -1.648336,-0.99199 -4.293277,-2.60826 -5.87765,-3.5917 -1.584373,-0.98345 -2.901505,-1.78808 -2.926966,-1.78808 -0.02545,0 0.11449,0.49429 0.310999,1.09844 1.366099,4.1999 1.809297,8.23171 1.320956,12.01683 -0.13372,1.03645 -0.432075,2.42186 -0.882584,4.09826 -0.230174,0.85651 -0.418841,1.57606 -0.419261,1.599 -0.0013,0.0689 0.122642,0.0502 0.982985,-0.14894 z"
       id="path22868" />
    <path
       style="fill:#7309b9;fill-opacity:1;stroke:#7309b9;stroke-width:0.0330729;stroke-opacity:1"
       d="m 112.93477,155.41422 c -0.53269,-0.034 -1.16783,-0.14399 -1.63374,-0.28287 -0.48764,-0.14536 -1.22055,-0.50777 -1.58885,-0.78567 -1.41153,-1.06507 -2.20056,-2.89149 -2.41558,-5.59153 -0.0505,-0.63347 -0.0218,-2.44528 0.0508,-3.21 0.14551,-1.53285 0.46679,-3.22809 0.89321,-4.71289 0.64535,-2.24716 2.56865,-7.64106 3.69705,-10.36836 1.20604,-2.91494 2.73895,-5.95021 4.2989,-8.51212 1.61262,-2.64839 3.25675,-4.08924 5.12659,-4.49275 0.20882,-0.0451 0.42103,-0.0588 0.9015,-0.0583 0.6882,7.9e-4 0.86776,0.0306 1.33289,0.22185 0.13283,0.0546 0.24855,0.0922 0.25717,0.0836 0.009,-0.009 0.0382,-0.15544 0.0658,-0.32626 0.24764,-1.53402 0.74403,-2.94192 1.40741,-3.99181 0.58433,-0.9248 1.40389,-1.69404 2.26145,-2.12259 0.8486,-0.42407 1.50985,-0.38965 2.05313,0.10688 0.51401,0.46978 0.79161,1.17952 0.90879,2.3235 0.0444,0.43371 0.0264,1.77971 -0.0333,2.48047 -0.0186,0.21828 -0.0566,1.09636 -0.0845,1.9513 -0.10834,3.32118 -0.34876,6.74762 -0.59844,8.52892 -0.26123,1.86372 -0.82766,3.9925 -1.45465,5.4669 -0.45296,1.06519 -1.05083,1.85311 -1.78413,2.35131 -0.65011,0.44168 -1.63407,0.71859 -2.25244,0.6339 -0.2859,-0.0392 -0.68948,-0.23347 -0.93579,-0.45054 -0.0987,-0.087 -0.26803,-0.27749 -0.37631,-0.42335 -0.42927,-0.57828 -1.06809,-2.10618 -1.65959,-3.96938 -1.01961,-3.21169 -1.41591,-4.21639 -1.89484,-4.80384 -0.063,-0.0773 -0.12664,-0.14056 -0.14136,-0.14056 -0.0147,0 -0.1226,0.17487 -0.23973,0.38861 -1.48853,2.71611 -2.67043,5.64992 -3.53285,8.7695 -0.34638,1.25291 -1.05305,4.27564 -1.38088,5.9066 -0.32497,1.61674 -0.33089,3.38881 -0.0149,4.4812 0.14175,0.49013 0.41179,0.9917 0.71258,1.32355 0.14779,0.16305 0.51687,0.45667 0.74265,0.5908 0.8421,0.50028 2.21675,0.63408 3.73139,0.36318 1.51459,-0.27088 3.19057,-0.85316 4.55703,-1.5832 0.30536,-0.16315 0.59558,-0.30631 0.64492,-0.31813 0.35447,-0.0849 0.43182,-0.33434 0.18754,-0.60472 -0.10292,-0.11392 -0.10824,-0.13103 -0.0799,-0.25694 0.0167,-0.0742 0.075,-0.4493 0.12966,-0.83355 0.11784,-0.82871 0.20181,-1.25633 0.31453,-1.60162 0.23918,-0.73272 0.82912,-1.59702 1.65332,-2.42223 0.862,-0.86306 1.68613,-1.32482 2.43229,-1.36281 0.56366,-0.0287 0.97813,0.12176 1.38021,0.50106 0.64803,0.61132 1.21191,1.93406 1.38041,3.23819 0.0633,0.49023 0.0646,1.26618 0.003,1.6769 -0.1656,1.09848 -0.96319,2.54253 -2.09894,3.80015 -0.62637,0.69358 -1.9884,1.86851 -3.32686,2.86983 -1.65251,1.23628 -2.7295,1.8934 -4.6302,2.8251 -2.69368,1.3204 -4.77543,2.01168 -6.81527,2.26311 -0.38164,0.047 -1.47542,0.11866 -1.66794,0.1092 -0.0455,-0.002 -0.26279,-0.0155 -0.48292,-0.0296 z"
       id="path23598" />
    <path
       style="fill:#390ca1;fill-opacity:1;stroke:#390da1;stroke-width:0.0935442;stroke-opacity:1"
       d="m 69.661974,155.16244 c -0.19445,-0.0516 -0.48291,-0.22319 -0.64103,-0.38131 -0.27266,-0.27266 -0.2857,-0.31936 -0.25261,-0.90486 0.0289,-0.51103 0.11399,-0.77676 0.49414,-1.54275 0.86304,-1.739 2.37611,-2.98587 4.35449,-3.58838 0.18007,-0.0548 0.62572,-0.18622 0.99032,-0.29195 0.51734,-0.15002 0.68638,-0.24376 0.7698,-0.42682 0.0588,-0.12903 0.15054,-1.00276 0.20389,-1.94164 0.0534,-0.93888 0.1587,-2.54895 0.23409,-3.57794 0.0754,-1.02899 0.20178,-2.88116 0.28087,-4.11595 0.0791,-1.23478 0.21061,-3.10801 0.29227,-4.16272 0.0817,-1.05471 0.13182,-2.30071 0.11146,-2.76888 l -0.037,-0.85123 -0.82175,-1.67447 c -0.45196,-0.92096 -1.13303,-2.22612 -1.51349,-2.90036 -0.86285,-1.52911 -3.52418,-5.56211 -4.2655,-6.46397 -0.30473,-0.37071 -0.61582,-0.82188 -0.69133,-1.00259 -0.19828,-0.47455 -0.16787,-1.06028 0.0829,-1.59743 0.49782,-1.06623 2.11279,-2.69463 3.21551,-3.24226 0.54251,-0.26941 0.63587,-0.28641 1.35639,-0.24687 0.90905,0.0499 1.23783,0.19383 2.41081,1.05547 0.43732,0.32125 1.23712,0.79703 1.77734,1.05729 0.54022,0.26026 2.3503,1.25891 4.02241,2.21923 8.17685,4.69611 11.52482,6.56806 15.808979,8.83926 3.338957,1.77011 4.528497,2.43757 5.799747,3.25429 2.5007,1.6066 4.58073,3.77683 5.02369,5.24153 0.50354,1.66503 -0.16242,3.90994 -1.80864,6.09681 -0.79615,1.05764 -2.49038,2.73558 -3.56861,3.53431 -4.254337,3.15153 -11.449466,5.91425 -21.766816,8.35782 -3.09621,0.73331 -4.82855,1.08259 -8.08445,1.63003 -3.21215,0.54008 -3.2294,0.54189 -3.77789,0.39634 z m 17.04526,-9.30303 c 4.37688,-1.07582 10.192829,-2.89055 12.352889,-3.85441 1.050007,-0.46854 2.523897,-1.30622 3.035507,-1.72523 l 0.27505,-0.22527 -0.55568,-0.63224 c -1.19398,-1.35848 -3.519487,-3.04681 -7.609526,-5.52454 -1.10135,-0.6672 -3.90066,-2.37552 -6.2207,-3.79627 -2.52321,-1.54517 -4.22963,-2.53592 -4.24656,-2.46555 -0.0156,0.0647 0.14016,0.6799 0.34609,1.36711 0.98788,3.29676 1.4117,5.89312 1.41247,8.65295 5.3e-4,2.18038 -0.25935,3.92488 -1.03307,6.93248 -0.25482,0.99056 -0.46332,1.82528 -0.46332,1.85493 0,0.0731 0.2756,0.0136 2.70685,-0.58396 z"
       id="path30747" />
    <path
       style="fill:#4463ee;fill-opacity:1;stroke:#4363ef;stroke-width:0.0556172;stroke-opacity:1"
       d="m 71.80727,157.24007 c -0.898406,-0.22948 -1.229023,-0.81989 -1.001834,-1.78906 0.09933,-0.42374 0.621364,-1.50547 1.009935,-2.09273 0.501741,-0.7583 1.529757,-1.63223 2.490533,-2.11723 0.533575,-0.26935 1.261176,-0.53363 2.04008,-0.741 0.397168,-0.10574 0.79598,-0.23045 0.886256,-0.27713 0.260428,-0.13468 0.318787,-0.45736 0.387248,-2.14125 0.03296,-0.81062 0.109153,-2.08704 0.169325,-2.83648 0.142702,-1.77731 0.260304,-3.44929 0.332514,-4.72746 0.07936,-1.40464 0.268768,-4.121 0.339338,-4.86651 0.179592,-1.89723 0.173692,-2.4427 -0.03302,-3.0515 -0.353266,-1.04042 -2.150519,-4.47678 -3.189076,-6.09754 -0.127409,-0.19883 -0.300343,-0.47261 -0.384297,-0.60839 -0.08396,-0.13579 -0.709883,-1.08332 -1.390955,-2.10563 -0.821591,-1.23325 -1.378709,-2.00989 -1.655523,-2.30785 -0.539153,-0.58035 -0.71473,-0.93264 -0.740302,-1.48539 -0.01469,-0.31766 0.009,-0.50129 0.09948,-0.76977 0.248417,-0.73742 0.966546,-1.67604 1.962543,-2.56512 1.067449,-0.95286 1.586681,-1.2199 2.461986,-1.26618 0.970141,-0.0513 1.677847,0.22674 2.725236,1.07069 0.704976,0.56804 0.836339,0.6486 1.545218,0.94757 0.534248,0.22532 1.809348,0.92562 4.127718,2.267 2.768069,1.60156 8.62315,4.93567 10.73409,6.1124 1.88876,1.05288 3.38102,1.85421 6.090067,3.27032 4.39699,2.29845 6.3568,3.57386 7.98578,5.19702 1.5184,1.51297 2.1078,2.57546 2.17621,3.92295 0.0833,1.64162 -0.89042,3.88383 -2.49995,5.75639 -0.68668,0.79889 -1.86739,1.94456 -2.63154,2.55343 -1.76241,1.40427 -4.24898,2.78763 -7.504857,4.17521 -3.33926,1.42311 -8.977153,3.16564 -14.210756,4.3922 -0.74944,0.17563 -1.925739,0.45253 -2.614003,0.61532 -1.776426,0.42016 -4.524064,0.93406 -6.530601,1.22144 -0.548189,0.0785 -1.198908,0.19524 -1.446044,0.2594 -0.551935,0.14329 -1.349066,0.18238 -1.730799,0.0849 z m 15.307407,-9.01535 c 4.640869,-1.07403 10.223166,-2.73887 13.337633,-3.97777 1.32905,-0.52868 2.66955,-1.25066 3.60335,-1.9407 l 0.32194,-0.23791 -0.13994,-0.1663 c -1.65138,-1.96255 -3.27223,-3.13402 -9.631494,-6.96113 -1.648324,-0.99199 -4.293257,-2.60826 -5.877624,-3.5917 -1.584367,-0.98345 -2.901494,-1.78808 -2.926955,-1.78808 -0.02545,0 0.114489,0.4943 0.310998,1.09844 1.366094,4.1999 1.80929,8.23171 1.320951,12.01683 -0.13372,1.03646 -0.432074,2.42186 -0.882581,4.09827 -0.230173,0.8565 -0.418839,1.57605 -0.419259,1.59899 -0.0013,0.0689 0.122641,0.0502 0.982981,-0.14894 z"
       id="path22868-3" />
    <path
       style="fill:#390ca1;fill-opacity:1;stroke:#390da1;stroke-width:0.0935442;stroke-opacity:1"
       d="m 113.98134,157.18889 c -1.95364,-0.36883 -3.34159,-1.53117 -4.05718,-3.39768 -0.51912,-1.35405 -0.62004,-2.07927 -0.62004,-4.45568 0,-2.37994 0.0962,-3.19121 0.65453,-5.51912 0.7127,-2.97167 3.35853,-10.24864 5.05073,-13.89133 1.15695,-2.49049 2.71436,-5.32644 3.82717,-6.96905 0.67771,-1.00037 2.05572,-2.4042 2.77874,-2.83081 1.17675,-0.69433 2.43499,-0.92152 3.50281,-0.63248 0.33618,0.091 0.63248,0.14422 0.65844,0.11825 0.026,-0.026 0.14582,-0.48365 0.26636,-1.01709 0.43196,-1.91168 1.09778,-3.261 2.1137,-4.28348 0.8486,-0.85409 1.54912,-1.25315 2.27905,-1.29829 0.51493,-0.0319 0.60844,-0.008 0.95591,0.24529 0.46923,0.34184 0.74287,0.87997 0.94377,1.85601 0.13467,0.65422 0.13883,1.03561 0.0386,3.53956 -0.34337,8.57953 -0.65598,11.17902 -1.71551,14.26551 -0.49072,1.42951 -0.94402,2.26861 -1.56862,2.90363 -0.85106,0.86527 -2.13689,1.3497 -2.97998,1.12268 -1.05548,-0.28421 -1.6816,-1.42577 -3.00358,-5.47625 -0.77811,-2.38409 -1.25632,-3.58626 -1.58158,-3.97586 l -0.27014,-0.32358 -0.20517,0.3256 c -0.3804,0.6037 -1.57924,3.12285 -2.06918,4.34802 -0.99191,2.48046 -1.651,4.74775 -2.56974,8.83994 -1.0686,4.75972 -0.68551,7.16734 1.29421,8.13388 1.759,0.85877 4.69124,0.41049 8.07452,-1.23444 0.54506,-0.26501 1.01315,-0.53951 1.0402,-0.60999 0.0271,-0.0705 -0.008,-0.23444 -0.0772,-0.36436 -0.10889,-0.20346 -0.0979,-0.40457 0.0794,-1.45012 0.24192,-1.42668 0.5498,-2.10274 1.43053,-3.14132 1.33098,-1.56951 2.73831,-2.20658 3.73582,-1.69112 1.53623,0.79384 2.37036,4.20765 1.52116,6.22552 -0.76481,1.81732 -2.24447,3.436 -5.12189,5.60311 -3.05823,2.30329 -7.29127,4.29925 -10.38014,4.89446 -1.37432,0.26483 -3.05648,0.32357 -4.02569,0.14059 z"
       id="path36176" />
    <path
       style="fill:#4463ee;fill-opacity:1;stroke:#4363ef;stroke-width:0.093544;stroke-opacity:1"
       d="m 116.0594,159.18889 c -1.95363,-0.36883 -3.34157,-1.53117 -4.05716,-3.39768 -0.51912,-1.35405 -0.62004,-2.07927 -0.62004,-4.45568 0,-2.37994 0.0962,-3.19121 0.65453,-5.51912 0.7127,-2.97167 3.35852,-10.24864 5.05071,-13.89133 1.15695,-2.49049 2.71435,-5.32644 3.82716,-6.96905 0.6777,-1.00037 2.05571,-2.4042 2.77873,-2.83081 1.17674,-0.69433 2.43498,-0.92152 3.50279,-0.63248 0.33618,0.091 0.63248,0.14422 0.65844,0.11825 0.026,-0.026 0.14582,-0.48365 0.26636,-1.01709 0.43196,-1.91168 1.09778,-3.261 2.11369,-4.28348 0.8486,-0.85409 1.54912,-1.25315 2.27905,-1.29829 0.51492,-0.0319 0.60843,-0.008 0.9559,0.24529 0.46923,0.34184 0.74287,0.87997 0.94377,1.85601 0.13467,0.65422 0.13883,1.03561 0.0386,3.53956 -0.34337,8.57953 -0.65598,11.17902 -1.71551,14.26551 -0.49071,1.42951 -0.94401,2.26861 -1.56861,2.90363 -0.85106,0.86527 -2.13688,1.3497 -2.97997,1.12268 -1.05549,-0.28421 -1.68159,-1.42577 -3.00357,-5.47625 -0.77811,-2.38409 -1.25631,-3.58626 -1.58157,-3.97586 l -0.27014,-0.32358 -0.20517,0.3256 c -0.3804,0.6037 -1.57924,3.12285 -2.06917,4.34802 -0.99191,2.48046 -1.651,4.74775 -2.56973,8.83994 -1.0686,4.75972 -0.68551,7.16734 1.2942,8.13388 1.75899,0.85877 4.69122,0.41049 8.07449,-1.23444 0.54506,-0.26501 1.01315,-0.53951 1.0402,-0.60999 0.0271,-0.0705 -0.008,-0.23444 -0.0772,-0.36436 -0.10889,-0.20346 -0.0979,-0.40457 0.0794,-1.45012 0.24192,-1.42668 0.5498,-2.10274 1.43052,-3.14132 1.33098,-1.56951 2.7383,-2.20658 3.73581,-1.69112 1.53622,0.79384 2.37035,4.20765 1.52115,6.22552 -0.7648,1.81732 -2.24446,3.436 -5.12187,5.60311 -3.05822,2.30329 -7.29124,4.29925 -10.38011,4.89446 -1.3743,0.26483 -3.05646,0.32357 -4.02567,0.14059 z"
       id="path41329" />
  </g>
</svg>
